<mxfile host="app.diagrams.net" agent="Mozilla/5.0 (Windows NT 10.0; Win64; x64; rv:129.0) Gecko/20100101 Firefox/129.0" version="24.7.7">
  <diagram name="Page-1" id="E77aH5PMcCFHhSWKQqhP">
    <mxGraphModel dx="2647" dy="2297" grid="1" gridSize="30" guides="1" tooltips="1" connect="1" arrows="1" fold="1" page="1" pageScale="1" pageWidth="850" pageHeight="1100" math="0" shadow="0">
      <root>
        <mxCell id="0" />
        <mxCell id="1" parent="0" />
        <mxCell id="mMglYVnVxDET-rJsD-vc-1" value="" style="endArrow=none;html=1;rounded=0;exitX=1;exitY=1;exitDx=0;exitDy=0;entryX=1;entryY=0;entryDx=0;entryDy=0;" parent="1" source="mMglYVnVxDET-rJsD-vc-11" edge="1">
          <mxGeometry width="50" height="50" relative="1" as="geometry">
            <mxPoint x="240" y="1120" as="sourcePoint" />
            <mxPoint x="240" as="targetPoint" />
            <Array as="points">
              <mxPoint x="241" y="150" />
            </Array>
          </mxGeometry>
        </mxCell>
        <mxCell id="mMglYVnVxDET-rJsD-vc-2" value="" style="endArrow=none;html=1;rounded=0;" parent="1" edge="1">
          <mxGeometry width="50" height="50" relative="1" as="geometry">
            <mxPoint x="-30" y="880" as="sourcePoint" />
            <mxPoint x="930" y="880" as="targetPoint" />
            <Array as="points" />
          </mxGeometry>
        </mxCell>
        <mxCell id="mMglYVnVxDET-rJsD-vc-11" value="پایگاه داده" style="text;html=1;align=center;verticalAlign=middle;whiteSpace=wrap;rounded=0;strokeWidth=5;perimeterSpacing=1;fillColor=#e1d5e7;strokeColor=#9673a6;spacingTop=4;horizontal=1;fontSize=40;" parent="1" vertex="1">
          <mxGeometry y="880" width="240" height="220" as="geometry" />
        </mxCell>
        <mxCell id="mMglYVnVxDET-rJsD-vc-14" value="" style="endArrow=none;html=1;rounded=0;" parent="1" edge="1">
          <mxGeometry width="50" height="50" relative="1" as="geometry">
            <mxPoint y="450" as="sourcePoint" />
            <mxPoint x="990" y="450" as="targetPoint" />
            <Array as="points">
              <mxPoint x="330" y="450" />
            </Array>
          </mxGeometry>
        </mxCell>
        <mxCell id="mMglYVnVxDET-rJsD-vc-15" value="" style="endArrow=none;html=1;rounded=0;" parent="1" edge="1">
          <mxGeometry width="50" height="50" relative="1" as="geometry">
            <mxPoint y="690" as="sourcePoint" />
            <mxPoint x="840" y="690" as="targetPoint" />
            <Array as="points" />
          </mxGeometry>
        </mxCell>
        <mxCell id="mMglYVnVxDET-rJsD-vc-39" style="edgeStyle=orthogonalEdgeStyle;rounded=0;orthogonalLoop=1;jettySize=auto;html=1;entryX=1;entryY=0.5;entryDx=0;entryDy=0;strokeWidth=4;" parent="1" source="mMglYVnVxDET-rJsD-vc-12" target="mMglYVnVxDET-rJsD-vc-20" edge="1">
          <mxGeometry relative="1" as="geometry">
            <mxPoint x="680" y="930" as="sourcePoint" />
            <Array as="points">
              <mxPoint x="690" y="750" />
            </Array>
          </mxGeometry>
        </mxCell>
        <mxCell id="mMglYVnVxDET-rJsD-vc-12" value="" style="shape=datastore;whiteSpace=wrap;html=1;fillColor=#dae8fc;strokeColor=#6c8ebf;gradientColor=#7ea6e0;" parent="1" vertex="1">
          <mxGeometry x="600" y="935" width="120" height="165" as="geometry" />
        </mxCell>
        <mxCell id="mMglYVnVxDET-rJsD-vc-17" value="مدیریت برنامه" style="text;html=1;align=center;verticalAlign=middle;whiteSpace=wrap;rounded=0;fillColor=#e1d5e7;strokeColor=#9673a6;strokeWidth=4;fontSize=40;" parent="1" vertex="1">
          <mxGeometry y="690" width="240" height="190" as="geometry" />
        </mxCell>
        <mxCell id="mMglYVnVxDET-rJsD-vc-22" style="edgeStyle=orthogonalEdgeStyle;rounded=0;orthogonalLoop=1;jettySize=auto;html=1;exitX=0.5;exitY=1;exitDx=0;exitDy=0;" parent="1" source="mMglYVnVxDET-rJsD-vc-18" edge="1">
          <mxGeometry relative="1" as="geometry">
            <mxPoint x="330" y="840" as="targetPoint" />
          </mxGeometry>
        </mxCell>
        <mxCell id="mMglYVnVxDET-rJsD-vc-18" value="ورود به مدیریت برنامه" style="rounded=1;whiteSpace=wrap;html=1;fontSize=20;fillColor=#dae8fc;strokeColor=#6c8ebf;strokeWidth=3;" parent="1" vertex="1">
          <mxGeometry x="270" y="720" width="150" height="120" as="geometry" />
        </mxCell>
        <mxCell id="mMglYVnVxDET-rJsD-vc-19" value="" style="endArrow=classic;html=1;rounded=0;strokeWidth=4;" parent="1" edge="1">
          <mxGeometry width="50" height="50" relative="1" as="geometry">
            <mxPoint x="425" y="749" as="sourcePoint" />
            <mxPoint x="515" y="749" as="targetPoint" />
          </mxGeometry>
        </mxCell>
        <mxCell id="mMglYVnVxDET-rJsD-vc-20" value="بررسی گزارش نشتی" style="rounded=1;whiteSpace=wrap;html=1;fontSize=20;fillColor=#dae8fc;strokeColor=#6c8ebf;strokeWidth=2;" parent="1" vertex="1">
          <mxGeometry x="510" y="720" width="150" height="60" as="geometry" />
        </mxCell>
        <mxCell id="mMglYVnVxDET-rJsD-vc-25" value="" style="endArrow=classic;html=1;rounded=0;fontSize=18;strokeWidth=4;" parent="1" edge="1">
          <mxGeometry width="50" height="50" relative="1" as="geometry">
            <mxPoint x="424" y="810" as="sourcePoint" />
            <mxPoint x="720" y="810" as="targetPoint" />
            <Array as="points">
              <mxPoint x="570" y="810" />
            </Array>
          </mxGeometry>
        </mxCell>
        <mxCell id="mMglYVnVxDET-rJsD-vc-37" style="edgeStyle=orthogonalEdgeStyle;rounded=0;orthogonalLoop=1;jettySize=auto;html=1;exitX=0.75;exitY=1;exitDx=0;exitDy=0;strokeWidth=4;" parent="1" source="mMglYVnVxDET-rJsD-vc-31" edge="1">
          <mxGeometry relative="1" as="geometry">
            <mxPoint x="720" y="990" as="targetPoint" />
            <Array as="points">
              <mxPoint x="855" y="990" />
              <mxPoint x="720" y="990" />
            </Array>
          </mxGeometry>
        </mxCell>
        <mxCell id="mMglYVnVxDET-rJsD-vc-31" value="&lt;div&gt;افزودن فایل&lt;/div&gt;&lt;div&gt;(inp)&lt;/div&gt;&lt;div&gt;&amp;nbsp;منطقه&lt;/div&gt;" style="rounded=1;whiteSpace=wrap;html=1;fillColor=#dae8fc;strokeColor=#6c8ebf;strokeWidth=2;fontSize=28;" parent="1" vertex="1">
          <mxGeometry x="720" y="750" width="390" height="120" as="geometry" />
        </mxCell>
        <mxCell id="mMglYVnVxDET-rJsD-vc-40" value="&lt;div style=&quot;font-size: 40px;&quot;&gt;هوش مصنوعی و شبیه ساز&lt;/div&gt;&lt;div style=&quot;font-size: 40px;&quot;&gt;WNTR&lt;br style=&quot;font-size: 40px;&quot;&gt;&lt;/div&gt;" style="text;html=1;align=center;verticalAlign=middle;whiteSpace=wrap;rounded=0;fillColor=#e1d5e7;strokeColor=#9673a6;strokeWidth=4;fontSize=40;" parent="1" vertex="1">
          <mxGeometry y="450" width="240" height="240" as="geometry" />
        </mxCell>
        <mxCell id="mMglYVnVxDET-rJsD-vc-41" value="تولید نمودارها و نقشه های مربوط به منطقه" style="ellipse;shape=cloud;whiteSpace=wrap;html=1;fillColor=#dae8fc;gradientColor=#7ea6e0;strokeColor=#6c8ebf;fontSize=21;align=center;" parent="1" vertex="1">
          <mxGeometry x="390" y="450" width="420" height="240" as="geometry" />
        </mxCell>
        <mxCell id="mMglYVnVxDET-rJsD-vc-43" value="" style="edgeStyle=orthogonalEdgeStyle;rounded=0;orthogonalLoop=1;jettySize=auto;html=1;exitX=0;exitY=0.5;exitDx=0;exitDy=0;strokeWidth=4;entryX=0.942;entryY=0.595;entryDx=0;entryDy=0;entryPerimeter=0;" parent="1" source="mMglYVnVxDET-rJsD-vc-42" target="mMglYVnVxDET-rJsD-vc-41" edge="1">
          <mxGeometry relative="1" as="geometry">
            <Array as="points">
              <mxPoint x="960" y="593" />
            </Array>
            <mxPoint x="954.18" y="570" as="sourcePoint" />
            <mxPoint x="750.0000000000001" y="591.1199999999999" as="targetPoint" />
          </mxGeometry>
        </mxCell>
        <mxCell id="mMglYVnVxDET-rJsD-vc-42" value="تابع تحلیل جزییات منطقه" style="rounded=1;whiteSpace=wrap;html=1;fontSize=22;fillColor=#dae8fc;strokeColor=#6c8ebf;strokeWidth=3;" parent="1" vertex="1">
          <mxGeometry x="960" y="495" width="300" height="150" as="geometry" />
        </mxCell>
        <mxCell id="mMglYVnVxDET-rJsD-vc-46" value="" style="endArrow=classic;html=1;rounded=0;strokeWidth=4;exitX=0.923;exitY=-0.033;exitDx=0;exitDy=0;exitPerimeter=0;entryX=0.4;entryY=0.993;entryDx=0;entryDy=0;entryPerimeter=0;" parent="1" source="mMglYVnVxDET-rJsD-vc-31" target="mMglYVnVxDET-rJsD-vc-42" edge="1">
          <mxGeometry width="50" height="50" relative="1" as="geometry">
            <mxPoint x="1050" y="748" as="sourcePoint" />
            <mxPoint x="1080" y="660" as="targetPoint" />
          </mxGeometry>
        </mxCell>
        <mxCell id="mMglYVnVxDET-rJsD-vc-47" value="" style="endArrow=none;html=1;rounded=0;" parent="1" edge="1">
          <mxGeometry width="50" height="50" relative="1" as="geometry">
            <mxPoint x="600" y="180" as="sourcePoint" />
            <mxPoint x="1140" y="180" as="targetPoint" />
          </mxGeometry>
        </mxCell>
        <mxCell id="Y-FkjwVcx4GSji7eQahT-6" style="edgeStyle=none;curved=1;rounded=0;orthogonalLoop=1;jettySize=auto;html=1;exitX=0.5;exitY=0;exitDx=0;exitDy=0;fontSize=12;startSize=8;endSize=8;" parent="1" source="mMglYVnVxDET-rJsD-vc-48" target="mMglYVnVxDET-rJsD-vc-52" edge="1">
          <mxGeometry relative="1" as="geometry">
            <Array as="points">
              <mxPoint x="120" y="210" />
            </Array>
          </mxGeometry>
        </mxCell>
        <mxCell id="mMglYVnVxDET-rJsD-vc-48" value="برنامه" style="text;html=1;align=center;verticalAlign=middle;whiteSpace=wrap;rounded=0;fillColor=#e1d5e7;strokeColor=#9673a6;strokeWidth=4;fontSize=38;" parent="1" vertex="1">
          <mxGeometry y="180" width="240" height="270" as="geometry" />
        </mxCell>
        <mxCell id="mMglYVnVxDET-rJsD-vc-52" value="کاربر" style="text;html=1;align=center;verticalAlign=middle;whiteSpace=wrap;rounded=0;fillColor=#e1d5e7;strokeColor=#9673a6;strokeWidth=4;fontSize=37;" parent="1" vertex="1">
          <mxGeometry y="-60" width="240" height="240" as="geometry" />
        </mxCell>
        <mxCell id="Y-FkjwVcx4GSji7eQahT-1" value="شروع" style="ellipse;whiteSpace=wrap;html=1;fillColor=#dae8fc;strokeColor=#6c8ebf;strokeWidth=3;fontSize=31;" parent="1" vertex="1">
          <mxGeometry x="360" width="240" height="150" as="geometry" />
        </mxCell>
        <mxCell id="Y-FkjwVcx4GSji7eQahT-2" value="" style="edgeStyle=elbowEdgeStyle;elbow=horizontal;endArrow=classic;html=1;curved=0;rounded=0;endSize=8;startSize=8;fontSize=18;strokeWidth=4;" parent="1" edge="1">
          <mxGeometry width="50" height="50" relative="1" as="geometry">
            <mxPoint x="525" y="0.23999999999999844" as="sourcePoint" />
            <mxPoint x="795" y="-42" as="targetPoint" />
            <Array as="points">
              <mxPoint x="525" y="48" />
            </Array>
          </mxGeometry>
        </mxCell>
        <mxCell id="Y-FkjwVcx4GSji7eQahT-3" value="راهنمای برنامه" style="rounded=1;whiteSpace=wrap;html=1;fillColor=#dae8fc;strokeColor=#6c8ebf;strokeWidth=3;fontSize=23;" parent="1" vertex="1">
          <mxGeometry x="795" y="-90" width="210" height="120" as="geometry" />
        </mxCell>
        <mxCell id="Y-FkjwVcx4GSji7eQahT-5" value="" style="endArrow=none;html=1;rounded=0;fontSize=12;startSize=8;endSize=8;curved=1;entryX=0.5;entryY=1;entryDx=0;entryDy=0;strokeWidth=4;" parent="1" target="Y-FkjwVcx4GSji7eQahT-1" edge="1">
          <mxGeometry width="50" height="50" relative="1" as="geometry">
            <mxPoint x="480" y="390" as="sourcePoint" />
            <mxPoint x="530" y="330" as="targetPoint" />
            <Array as="points" />
          </mxGeometry>
        </mxCell>
        <mxCell id="Y-FkjwVcx4GSji7eQahT-10" value="" style="endArrow=classic;html=1;rounded=0;fontSize=12;startSize=8;endSize=8;curved=1;strokeWidth=3;" parent="1" edge="1">
          <mxGeometry width="50" height="50" relative="1" as="geometry">
            <mxPoint x="480" y="390" as="sourcePoint" />
            <mxPoint x="540" y="390" as="targetPoint" />
          </mxGeometry>
        </mxCell>
        <mxCell id="Y-FkjwVcx4GSji7eQahT-11" value="" style="endArrow=classic;html=1;rounded=0;fontSize=12;startSize=8;endSize=8;curved=1;strokeWidth=3;" parent="1" edge="1">
          <mxGeometry width="50" height="50" relative="1" as="geometry">
            <mxPoint x="480" y="299" as="sourcePoint" />
            <mxPoint x="600" y="299" as="targetPoint" />
          </mxGeometry>
        </mxCell>
        <mxCell id="Y-FkjwVcx4GSji7eQahT-12" value="" style="endArrow=classic;html=1;rounded=0;fontSize=12;startSize=8;endSize=8;curved=1;strokeWidth=3;" parent="1" edge="1">
          <mxGeometry width="50" height="50" relative="1" as="geometry">
            <mxPoint x="480" y="209" as="sourcePoint" />
            <mxPoint x="600" y="209" as="targetPoint" />
          </mxGeometry>
        </mxCell>
        <mxCell id="Y-FkjwVcx4GSji7eQahT-14" value="" style="endArrow=none;html=1;rounded=0;" parent="1" edge="1">
          <mxGeometry width="50" height="50" relative="1" as="geometry">
            <mxPoint y="180" as="sourcePoint" />
            <mxPoint x="600" y="180" as="targetPoint" />
          </mxGeometry>
        </mxCell>
        <mxCell id="Y-FkjwVcx4GSji7eQahT-16" value="گزارش نشتی" style="rounded=1;whiteSpace=wrap;html=1;fillColor=#dae8fc;strokeColor=#6c8ebf;strokeWidth=4;fontSize=25;" parent="1" vertex="1">
          <mxGeometry x="600" y="180" width="180" height="60" as="geometry" />
        </mxCell>
        <mxCell id="Y-FkjwVcx4GSji7eQahT-17" value="گزارش مناطق" style="rounded=1;whiteSpace=wrap;html=1;fillColor=#dae8fc;strokeColor=#6c8ebf;strokeWidth=5;fontSize=25;" parent="1" vertex="1">
          <mxGeometry x="600" y="270" width="210" height="60" as="geometry" />
        </mxCell>
        <mxCell id="Y-FkjwVcx4GSji7eQahT-18" value="شبکه گزارش هوشمند" style="rounded=1;whiteSpace=wrap;html=1;fillColor=#dae8fc;strokeColor=#6c8ebf;strokeWidth=4;fontSize=20;" parent="1" vertex="1">
          <mxGeometry x="540" y="360" width="180" height="60" as="geometry" />
        </mxCell>
        <mxCell id="Y-FkjwVcx4GSji7eQahT-20" value="" style="endArrow=classic;html=1;rounded=0;fontSize=14;startSize=8;endSize=8;curved=1;exitX=1;exitY=0.75;exitDx=0;exitDy=0;strokeWidth=3;" parent="1" source="Y-FkjwVcx4GSji7eQahT-16" edge="1">
          <mxGeometry width="50" height="50" relative="1" as="geometry">
            <mxPoint x="570" y="320" as="sourcePoint" />
            <mxPoint x="960" y="225" as="targetPoint" />
            <Array as="points" />
          </mxGeometry>
        </mxCell>
        <mxCell id="Y-FkjwVcx4GSji7eQahT-21" value="فرم گزارش نشتی" style="rounded=1;whiteSpace=wrap;html=1;fillColor=#dae8fc;strokeColor=#6c8ebf;strokeWidth=3;fontSize=20;" parent="1" vertex="1">
          <mxGeometry x="960" y="210" width="180" height="60" as="geometry" />
        </mxCell>
        <mxCell id="Y-FkjwVcx4GSji7eQahT-22" value="" style="edgeStyle=elbowEdgeStyle;elbow=vertical;endArrow=classic;html=1;curved=0;rounded=0;endSize=8;startSize=8;fontSize=12;entryX=0.857;entryY=0.25;entryDx=0;entryDy=0;entryPerimeter=0;strokeWidth=3;exitX=1;exitY=0.25;exitDx=0;exitDy=0;" parent="1" source="Y-FkjwVcx4GSji7eQahT-18" target="mMglYVnVxDET-rJsD-vc-41" edge="1">
          <mxGeometry width="50" height="50" relative="1" as="geometry">
            <mxPoint x="720" y="390" as="sourcePoint" />
            <mxPoint x="810" y="480" as="targetPoint" />
            <Array as="points">
              <mxPoint x="750" y="375" />
            </Array>
          </mxGeometry>
        </mxCell>
        <mxCell id="Y-FkjwVcx4GSji7eQahT-23" value="" style="rounded=1;whiteSpace=wrap;html=1;strokeWidth=2;fillWeight=4;hachureGap=8;hachureAngle=45;fillColor=#1ba1e2;sketch=1;" parent="1" vertex="1">
          <mxGeometry x="750" y="390" width="60" height="30" as="geometry" />
        </mxCell>
        <mxCell id="Y-FkjwVcx4GSji7eQahT-24" value="" style="endArrow=classic;html=1;rounded=0;fontSize=12;startSize=8;endSize=8;curved=1;strokeWidth=3;" parent="1" edge="1">
          <mxGeometry width="50" height="50" relative="1" as="geometry">
            <mxPoint x="750" y="420" as="sourcePoint" />
            <mxPoint x="450" y="420" as="targetPoint" />
            <Array as="points">
              <mxPoint x="510" y="420" />
            </Array>
          </mxGeometry>
        </mxCell>
        <mxCell id="Y-FkjwVcx4GSji7eQahT-26" value="انتخاب منطقه" style="text;html=1;align=center;verticalAlign=middle;whiteSpace=wrap;rounded=0;fontSize=23;" parent="1" vertex="1">
          <mxGeometry x="390" y="390" width="55" height="30" as="geometry" />
        </mxCell>
        <mxCell id="Y-FkjwVcx4GSji7eQahT-28" value="" style="edgeStyle=elbowEdgeStyle;elbow=vertical;endArrow=classic;html=1;curved=0;rounded=0;endSize=8;startSize=8;fontSize=12;exitX=1;exitY=0.5;exitDx=0;exitDy=0;entryX=0.925;entryY=0.349;entryDx=0;entryDy=0;entryPerimeter=0;strokeWidth=3;" parent="1" source="Y-FkjwVcx4GSji7eQahT-17" target="mMglYVnVxDET-rJsD-vc-41" edge="1">
          <mxGeometry width="50" height="50" relative="1" as="geometry">
            <mxPoint x="420" y="560" as="sourcePoint" />
            <mxPoint x="470" y="510" as="targetPoint" />
            <Array as="points">
              <mxPoint x="840" y="450" />
            </Array>
          </mxGeometry>
        </mxCell>
        <mxCell id="Y-FkjwVcx4GSji7eQahT-29" value="انتخاب منطقه" style="rounded=1;whiteSpace=wrap;html=1;fillColor=#dae8fc;strokeColor=#6c8ebf;strokeWidth=4;fontSize=20;" parent="1" vertex="1">
          <mxGeometry x="840" y="330" width="120" height="60" as="geometry" />
        </mxCell>
        <mxCell id="Y-FkjwVcx4GSji7eQahT-30" value="" style="edgeStyle=elbowEdgeStyle;elbow=vertical;endArrow=classic;html=1;curved=0;rounded=0;endSize=8;startSize=8;fontSize=12;exitX=1;exitY=0.5;exitDx=0;exitDy=0;entryX=1;entryY=0.7;entryDx=0;entryDy=0;strokeWidth=5;" parent="1" source="Y-FkjwVcx4GSji7eQahT-21" target="mMglYVnVxDET-rJsD-vc-12" edge="1">
          <mxGeometry width="50" height="50" relative="1" as="geometry">
            <mxPoint x="1415" y="235" as="sourcePoint" />
            <mxPoint x="1500" y="1020" as="targetPoint" />
            <Array as="points">
              <mxPoint x="1440" y="240" />
            </Array>
          </mxGeometry>
        </mxCell>
      </root>
    </mxGraphModel>
  </diagram>
</mxfile>
